<svg width="15" height="12" viewBox="0 0 15 12" fill="none" xmlns="http://www.w3.org/2000/svg">
<path d="M14.1249 6.74342H2.53805L6.52571 10.7311C6.81602 11.0214 6.81602 11.4922 6.5259 11.7823C6.2356 12.0726 5.76465 12.0726 5.47434 11.7823L0.217859 6.5256C0.18329 6.49104 0.15244 6.45294 0.125305 6.41242C0.112853 6.39365 0.104118 6.37339 0.093339 6.35388C0.0810719 6.33083 0.066946 6.3089 0.0570965 6.28455C0.0465031 6.25946 0.040556 6.23344 0.0331221 6.20742C0.026989 6.18679 0.0189981 6.16709 0.0147238 6.14591C0.00505924 6.09758 4.1008e-05 6.04889 4.1008e-05 6.00001L0.000226021 5.99834C0.000411987 5.9502 0.00524521 5.90188 0.0147238 5.85449C0.0191841 5.83219 0.0275459 5.81156 0.0340509 5.78963C0.0412998 5.76491 0.046875 5.73982 0.0569105 5.71584C0.0676899 5.69001 0.0821877 5.66659 0.0955687 5.64224C0.105605 5.62403 0.113596 5.60545 0.125119 5.58798C0.152253 5.5469 0.183478 5.50862 0.218232 5.47386L5.47453 0.21775C5.76483 -0.0725523 6.2356 -0.0725525 6.5259 0.217564C6.8162 0.507867 6.8162 0.978633 6.5259 1.26912L2.53823 5.2566H14.1249C14.5354 5.2566 14.8683 5.58946 14.8683 6.00001C14.8683 6.41056 14.5354 6.74342 14.1249 6.74342Z" fill="white"/>
</svg>
