<svg width="14" height="14" viewBox="0 0 14 14" fill="none" xmlns="http://www.w3.org/2000/svg">
<path fill-rule="evenodd" clip-rule="evenodd" d="M7 0C10.866 0 14 3.13401 14 7C14 10.866 10.866 14 7 14C3.13401 14 0 10.866 0 7C0 3.13401 3.13401 0 7 0ZM7 1.4C3.90721 1.4 1.4 3.90721 1.4 7C1.4 10.0928 3.90721 12.6 7 12.6C10.0928 12.6 12.6 10.0928 12.6 7C12.6 3.90721 10.0928 1.4 7 1.4ZM7 2.8C7.35898 2.8 7.65485 3.07023 7.69529 3.41837L7.7 3.5V6.71005L8.89497 7.90503C9.16834 8.17839 9.16834 8.62161 8.89497 8.89497C8.64264 9.14731 8.24557 9.16672 7.97097 8.95321L7.90503 8.89497L6.50503 7.49497C6.39563 7.38558 6.32618 7.2437 6.30607 7.09201L6.3 7V3.5C6.3 3.1134 6.6134 2.8 7 2.8Z" fill="black"/>
</svg>
