<svg width="14" height="14" viewBox="0 0 14 14" fill="none" xmlns="http://www.w3.org/2000/svg">
<path d="M5 13.65C5.35899 13.65 5.65 13.359 5.65 13C5.65 12.641 5.35899 12.35 5 12.35V13.65ZM1 11.6667H0.35H1ZM2.33333 1V0.35V1ZM5 1.65C5.35899 1.65 5.65 1.35899 5.65 1C5.65 0.641015 5.35899 0.35 5 0.35V1.65ZM9.20705 9.87371C8.95321 10.1276 8.95321 10.5391 9.20705 10.793C9.46089 11.0468 9.87245 11.0468 10.1263 10.793L9.20705 9.87371ZM13 7L13.4596 7.45962C13.7135 7.20578 13.7135 6.79422 13.4596 6.54038L13 7ZM10.1263 3.20705C9.87245 2.95321 9.46089 2.95321 9.20705 3.20705C8.95321 3.46089 8.95321 3.87245 9.20705 4.12629L10.1263 3.20705ZM5 6.35C4.64102 6.35 4.35 6.64102 4.35 7C4.35 7.35899 4.64102 7.65 5 7.65V6.35ZM5 12.35H2.33333V13.65H5V12.35ZM2.33333 12.35C2.1521 12.35 1.97829 12.278 1.85014 12.1499L0.930905 13.0691C1.30285 13.441 1.80732 13.65 2.33333 13.65V12.35ZM1.85014 12.1499C1.72199 12.0217 1.65 11.8479 1.65 11.6667H0.35C0.35 12.1927 0.558958 12.6971 0.930905 13.0691L1.85014 12.1499ZM1.65 11.6667V2.33333H0.35V11.6667H1.65ZM1.65 2.33333C1.65 2.1521 1.72199 1.97829 1.85014 1.85014L0.930905 0.930905C0.558958 1.30285 0.35 1.80732 0.35 2.33333H1.65ZM1.85014 1.85014C1.97829 1.72199 2.1521 1.65 2.33333 1.65V0.35C1.80732 0.35 1.30285 0.558958 0.930905 0.930905L1.85014 1.85014ZM2.33333 1.65H5V0.35H2.33333V1.65ZM10.1263 10.793L13.4596 7.45962L12.5404 6.54038L9.20705 9.87371L10.1263 10.793ZM13.4596 6.54038L10.1263 3.20705L9.20705 4.12629L12.5404 7.45962L13.4596 6.54038ZM13 6.35H5V7.65H13V6.35Z" fill="#555555"/>
</svg>
