<svg width="12" height="12" viewBox="0 0 12 12" fill="none" xmlns="http://www.w3.org/2000/svg">
<path d="M8.7 1L9.05355 0.646447C8.85829 0.451184 8.54171 0.451184 8.34645 0.646447L8.7 1ZM11.5 3.8L11.8536 4.15355C11.9473 4.05979 12 3.93261 12 3.8C12 3.66739 11.9473 3.54021 11.8536 3.44645L11.5 3.8ZM3.8 11.5V12C3.93261 12 4.05979 11.9473 4.15355 11.8536L3.8 11.5ZM1 11.5H0.5C0.5 11.7761 0.723858 12 1 12V11.5ZM1 8.7L0.646447 8.34645C0.552678 8.44021 0.5 8.56739 0.5 8.7H1ZM8.34645 1.35355L11.1464 4.15355L11.8536 3.44645L9.05355 0.646447L8.34645 1.35355ZM11.1464 3.44645L3.44645 11.1464L4.15355 11.8536L11.8536 4.15355L11.1464 3.44645ZM3.8 11H1V12H3.8V11ZM1.5 11.5V8.7H0.5V11.5H1.5ZM1.35355 9.05355L9.05355 1.35355L8.34645 0.646447L0.646447 8.34645L1.35355 9.05355Z" fill="#AC8F78"/>
</svg>
